<?xml version="1.0" encoding="UTF-8"?>
<svg xmlns="http://www.w3.org/2000/svg" xmlns:xlink="http://www.w3.org/1999/xlink" width="32px" height="32px" viewBox="0 0 32 32" version="1.1">
<g id="surface1">
<path style="fill-rule:nonzero;fill:rgb(81.568627%,81.176471%,80.784314%);fill-opacity:1;stroke-width:2;stroke-linecap:round;stroke-linejoin:round;stroke:rgb(0%,0%,0%);stroke-opacity:1;stroke-miterlimit:10;" d="M 29.047852 61.611328 C 29.047852 60.679688 29.012695 57.629883 29.012695 53.850586 C 29.012695 51.196289 29.882812 49.473633 30.875977 48.594727 C 24.644531 47.874023 18.09668 45.439453 18.09668 34.558594 C 18.09668 31.464844 19.186523 28.924805 20.979492 26.947266 C 20.698242 26.226562 19.722656 23.334961 21.260742 19.432617 C 21.260742 19.432617 23.616211 18.667969 28.977539 22.341797 C 31.209961 21.708984 33.609375 21.392578 36 21.383789 C 38.381836 21.392578 40.790039 21.708984 43.03125 22.341797 C 48.383789 18.667969 50.739258 19.432617 50.739258 19.432617 C 52.268555 23.334961 51.310547 26.226562 51.020508 26.947266 C 52.813477 28.924805 53.894531 31.456055 53.894531 34.558594 C 53.894531 45.46582 47.337891 47.865234 41.080078 48.568359 C 42.099609 49.447266 42.987305 51.178711 42.987305 53.833008 C 42.987305 57.621094 42.952148 60.679688 42.952148 61.611328 C 42.952148 62.375977 43.461914 63.254883 44.885742 62.982422 C 56.030273 59.220703 64.063477 48.585938 64.063477 36.043945 C 64.063477 20.373047 51.495117 7.664062 36 7.664062 C 20.504883 7.664062 7.936523 20.364258 7.936523 36.043945 C 7.936523 48.585938 15.978516 59.229492 27.140625 62.982422 C 28.529297 63.246094 29.047852 62.367188 29.047852 61.611328 Z M 29.047852 61.611328 " transform="matrix(0.444444,0,0,0.444444,0,0)"/>
<path style="fill:none;stroke-width:2;stroke-linecap:round;stroke-linejoin:round;stroke:rgb(0%,0%,0%);stroke-opacity:1;stroke-miterlimit:10;" d="M 16.286133 48.084961 C 18.861328 48.867188 19.87207 49.728516 21.076172 51.75 C 22.280273 53.780273 23.695312 56.039062 29.012695 54.74707 " transform="matrix(0.444444,0,0,0.444444,0,0)"/>
</g>
</svg>
